# xmcd
#
# Track frame offsets:
#	150
#	11852
#	20835
#	28936
#	40914
#	49279
#	74541
#	81413
#	89093
#	96139
#	106942
#	112556
#	123688
#	138336
#	146717
#	157296
#	173396
#	184910
#	195181
#	203914
#	212146
#	218380
#	231277
#	243035
#
# Disc length: 3348 seconds
#
# Revision: 0
# Processed by: cddbd v1.5.2PL0 Copyright (c) Steve Scherf et al.
# Submitted via: dBpowerAMP V4.0
#
DISCID=5b0d1218
DTITLE=Various Artist - Rhyme Skool with Kaif - Vol 1
DYEAR=2010
DGENRE=Rhymes
TTITLE0=All by Myself
TTITLE1=After My Bath
TTITLE2=Five Little fingers
TTITLE3=Where is Thumbkin
TTITLE4=Head, Shoulders, Kennes
TTITLE5=Old McDonald
TTITLE6=Buzzing Bees@
TTITLE7=Incy Wincy Spider
TTITLE8=Rain Creatures@
TTITLE9=Bear Went Over The mountain
TTITLE10=Teddy Bear
TTITLE11=Five Little Monkeys
TTITLE12=Its Raining Its Pouring
TTITLE13=April clouds
TTITLE14=Water@
TTITLE15=Flowers@
TTITLE16=Seashore@
TTITLE17=Row,Row, Row Your boat
TTITLE18=Choo Choo Train
TTITLE19=Bus
TTITLE20=Ringa Ringa Roses
TTITLE21=Twinkle
TTITLE22=A.B.C.D
TTITLE23=Grand old duker of York
EXTD=Rhyme Skool Vo1 with katrina Kaif,\nI am Sirish
EXTT0=
EXTT1=
EXTT2=
EXTT3=
EXTT4=
EXTT5=
EXTT6=
EXTT7=
EXTT8=
EXTT9=
EXTT10=
EXTT11=
EXTT12=
EXTT13=
EXTT14=
EXTT15=
EXTT16=
EXTT17=
EXTT18=
EXTT19=
EXTT20=
EXTT21=
EXTT22=
EXTT23=
PLAYORDER=
